<svg width="455" height="402" viewBox="0 0 455 402" fill="none" xmlns="http://www.w3.org/2000/svg">
<g clip-path="url(#clip0_2502_1872)">
<g clip-path="url(#clip1_2502_1872)">
<g clip-path="url(#clip2_2502_1872)">
<path opacity="0.15" d="M270.948 117.095H20.2562L0.000244141 0H399.173L423.889 94.7916L369.068 155.57C444.331 172.298 442.658 210.214 452.693 267.647C466.631 346.825 419.987 401.47 241.586 401.47C59.8394 401.47 16.7258 336.788 0.000676572 242.555H144.952C151.084 275.453 154.43 284.375 221.33 284.375C295.477 284.375 310.53 277.126 308.3 264.858C306.07 252.592 302.168 245.343 228.02 245.343H190.852L178.402 178.431L270.948 117.095Z" fill="#E92452"/>
</g>
</g>
</g>
<defs>
<clipPath id="clip0_2502_1872">
<rect width="455" height="401.47" fill="white"/>
</clipPath>
<clipPath id="clip1_2502_1872">
<rect width="455" height="401.47" fill="white"/>
</clipPath>
<clipPath id="clip2_2502_1872">
<rect width="454.999" height="401.47" fill="white" transform="translate(0.000244141)"/>
</clipPath>
</defs>
</svg>
