<svg width="84" height="63" viewBox="0 0 84 63" fill="none" xmlns="http://www.w3.org/2000/svg">
<path d="M82.7437 21.3213C82.7437 17.3657 81.5707 13.4989 79.3731 10.2099C77.1755 6.92091 74.052 4.35746 70.3973 2.84371C66.7428 1.32996 62.7216 0.933888 58.842 1.70559C54.9623 2.4773 51.3986 4.38211 48.6016 7.17916C45.8046 9.97621 43.8997 13.5399 43.128 17.4196C42.3563 21.2992 42.7523 25.3204 44.2661 28.9749C45.7798 32.6295 48.3433 35.753 51.6323 37.9507C54.9213 40.1483 58.7881 41.3213 62.7437 41.3213V21.3213H82.7437Z" fill="#E92452"/>
<path d="M82.7437 41.3213C82.7437 43.9477 82.2262 46.5484 81.2213 48.9749C80.2162 51.4014 78.743 53.6063 76.8857 55.4634C75.0286 57.3205 72.8238 58.7938 70.3973 59.7989C67.9708 60.8039 65.3701 61.3213 62.7437 61.3213V41.3213H82.7437Z" fill="#1CA3B3"/>
<path d="M62.7437 61.3213C60.1172 61.3213 57.5166 60.8039 55.0901 59.7989C52.6636 58.7938 50.4587 57.3205 48.6016 55.4634C46.7444 53.6063 45.2712 51.4014 44.2661 48.9749C43.2611 46.5484 42.7437 43.9477 42.7437 41.3213H62.7437V61.3213Z" fill="#FBAB14"/>
<path d="M82.7437 21.3213H62.7437V41.3213H82.7437V21.3213Z" fill="#7C4894"/>
<path d="M41.7437 21.3213C41.7437 17.3657 40.5707 13.4989 38.3731 10.2099C36.1754 6.92091 33.052 4.35746 29.3973 2.84371C25.7428 1.32996 21.7216 0.933888 17.842 1.70559C13.9623 2.4773 10.3986 4.38211 7.60152 7.17916C4.80447 9.97621 2.89966 13.5399 2.12795 17.4196C1.35625 21.2992 1.75232 25.3204 3.26607 28.9749C4.77982 32.6295 7.34327 35.753 10.6323 37.9507C13.9213 40.1483 17.7881 41.3213 21.7437 41.3213V21.3213H41.7437Z" fill="#FBAB14"/>
<path d="M41.7437 41.3213C41.7437 43.9477 41.2263 46.5484 40.2213 48.9749C39.2162 51.4014 37.7429 53.6063 35.8858 55.4634C34.0287 57.3205 31.8238 58.7938 29.3973 59.7989C26.9708 60.8039 24.3701 61.3213 21.7437 61.3213V41.3213H41.7437Z" fill="#7C4894"/>
<path d="M21.7437 61.3213C19.1172 61.3213 16.5166 60.8039 14.09 59.7989C11.6635 58.7938 9.45869 57.3205 7.60151 55.4634C5.74434 53.6063 4.27115 51.4014 3.26606 48.9749C2.26096 46.5484 1.74365 43.9477 1.74365 41.3213H21.7437V61.3213Z" fill="#E92452"/>
<path d="M41.7437 21.3213H21.7437V41.3213H41.7437V21.3213Z" fill="#1CA3B3"/>
<path d="M82.7437 21.3213C82.7437 17.3657 81.5707 13.4989 79.3731 10.2099C77.1755 6.92091 74.052 4.35746 70.3973 2.84371C66.7428 1.32996 62.7216 0.933888 58.842 1.70559C54.9623 2.4773 51.3986 4.38211 48.6016 7.17916C45.8046 9.97621 43.8997 13.5399 43.128 17.4196C42.3563 21.2992 42.7523 25.3204 44.2661 28.9749C45.7798 32.6295 48.3433 35.753 51.6323 37.9507C54.9213 40.1483 58.7881 41.3213 62.7437 41.3213M82.7437 21.3213H62.7437V41.3213M82.7437 21.3213V41.3213M62.7437 41.3213V61.3213M62.7437 41.3213H82.7437M62.7437 41.3213H42.7437C42.7437 43.9477 43.2611 46.5484 44.2661 48.9749C45.2712 51.4014 46.7444 53.6063 48.6016 55.4634C50.4587 57.3205 52.6636 58.7938 55.0901 59.7989C57.5166 60.8039 60.1172 61.3213 62.7437 61.3213M82.7437 41.3213C82.7437 43.9477 82.2263 46.5484 81.2213 48.9749C80.2162 51.4014 78.7429 53.6063 76.8857 55.4634C75.0286 57.3205 72.8238 58.7938 70.3973 59.7989C67.9708 60.8039 65.3701 61.3213 62.7437 61.3213M41.7437 21.3213C41.7437 17.3657 40.5707 13.4989 38.3731 10.2099C36.1755 6.92091 33.052 4.35746 29.3973 2.84371C25.7428 1.32996 21.7216 0.933888 17.842 1.70559C13.9623 2.4773 10.3986 4.38211 7.60152 7.17916C4.80447 9.97621 2.89966 13.5399 2.12795 17.4196C1.35625 21.2992 1.75232 25.3204 3.26607 28.9749C4.77982 32.6295 7.34327 35.753 10.6323 37.9507C13.9213 40.1483 17.7881 41.3213 21.7437 41.3213M41.7437 21.3213H21.7437V41.3213M41.7437 21.3213V41.3213M21.7437 41.3213V61.3213M21.7437 41.3213H41.7437M21.7437 41.3213H1.74365C1.74365 43.9477 2.26096 46.5484 3.26606 48.9749C4.27115 51.4014 5.74434 53.6063 7.60151 55.4634C9.45869 57.3205 11.6635 58.7938 14.09 59.7989C16.5166 60.8039 19.1172 61.3213 21.7437 61.3213M41.7437 41.3213C41.7437 43.9477 41.2263 46.5484 40.2213 48.9749C39.2162 51.4014 37.7429 53.6063 35.8858 55.4634C34.0287 57.3205 31.8238 58.7938 29.3973 59.7989C26.9708 60.8039 24.3701 61.3213 21.7437 61.3213" stroke="white" stroke-width="2"/>
</svg>
