<svg width="117" height="46" viewBox="0 0 117 46" fill="none" xmlns="http://www.w3.org/2000/svg">
<g clip-path="url(#clip0_2502_1723)">
<g clip-path="url(#clip1_2502_1723)">
<path d="M0.758301 44.1197V27.3965H15.4888V31.6491H6.38842V33.5842H10.4411C14.5909 33.5842 16.8721 35.3759 16.8721 38.6488C16.8721 42.0651 14.2027 44.1197 9.71312 44.1197H0.758301ZM6.38842 40.1779H9.32482C10.4654 40.1779 11.1207 39.6761 11.1207 38.7923C11.1207 37.9322 10.514 37.5021 9.32482 37.5021H6.38842V40.1779Z" fill="#202335"/>
<path d="M31.7325 44.1197L30.5921 41.2051H24.1368L22.9962 44.1197H17.1719L24.5978 27.3965H30.228L37.6539 44.1197H31.7325ZM25.7142 37.1438H29.0146L27.3643 32.9391L25.7142 37.1438Z" fill="#202335"/>
<path d="M41.6915 27.3965H56.0338V44.1197H50.4036V31.7684H46.5206L46.4722 33.7036C46.2781 40.1539 45.4044 44.4303 40.7206 44.4303C40.0169 44.4303 39.1919 44.3347 38.2939 44.1197L38.5851 39.6045C38.8036 39.6523 39.0219 39.6761 39.2161 39.6761C41.1089 39.6761 41.3516 37.1677 41.473 33.9186L41.6915 27.3965Z" fill="#202335"/>
<path d="M61.2667 27.3965H75.609V44.1197H69.979V31.7684H66.0961L66.0476 33.7036C65.8534 40.1539 64.9798 44.4303 60.2961 44.4303C59.5924 44.4303 58.7671 44.3347 57.8694 44.1197L58.1606 39.6045C58.3788 39.6523 58.5973 39.6761 58.7916 39.6761C60.6844 39.6761 60.9271 37.1677 61.0484 33.9186L61.2667 27.3965Z" fill="#202335"/>
<path d="M87.2489 44.5024C81.7159 44.5024 77.6631 40.8233 77.6631 35.7586C77.6631 30.6938 81.7159 27.0146 87.2489 27.0146C92.782 27.0146 96.8345 30.6938 96.8345 35.7586C96.8345 40.8233 92.782 44.5024 87.2489 44.5024ZM87.2489 39.9394C89.3602 39.9394 91.0588 38.3626 91.0588 35.7586C91.0588 33.1545 89.3602 31.5777 87.2489 31.5777C85.1376 31.5777 83.4389 33.1545 83.4389 35.7586C83.4389 38.3626 85.1376 39.9394 87.2489 39.9394Z" fill="#202335"/>
<path d="M111.952 35.3521C113.821 36.021 114.888 37.335 114.888 39.27C114.888 42.2325 112.413 44.1197 107.972 44.1197H98.896V27.3965H107.511C111.709 27.3965 114.136 28.9971 114.136 31.7684C114.136 33.3692 113.335 34.6113 111.952 35.3521ZM104.526 31.3385V33.8229H106.953C107.924 33.8229 108.36 33.4168 108.36 32.6046C108.36 31.7924 107.924 31.3385 106.953 31.3385H104.526ZM107.705 40.1779C108.652 40.1779 109.113 39.7 109.113 38.8399C109.113 37.9799 108.652 37.5499 107.705 37.5499H104.526V40.1779H107.705Z" fill="#202335"/>
<path d="M3.83045 7.45862C2.05965 7.45862 0.758301 6.23709 0.758301 4.60041C0.758301 2.96371 2.05965 1.74219 3.83045 1.74219C5.5848 1.74219 6.88614 2.95574 6.88614 4.60041C6.88614 6.24506 5.5848 7.45862 3.83045 7.45862ZM3.83045 6.74805C5.10711 6.74805 6.06252 5.8379 6.06252 4.60041C6.06252 3.36292 5.10711 2.45275 3.83045 2.45275C2.53735 2.45275 1.58194 3.36292 1.58194 4.60041C1.58194 5.8379 2.53735 6.74805 3.83045 6.74805Z" fill="#202335"/>
<path d="M12.2699 1.80664H13.0935V7.39533H12.2699V4.90438H8.95887V7.39533H8.13525V1.80664H8.95887V4.20978H12.2699V1.80664Z" fill="#202335"/>
<path d="M15.3877 1.80664H19.4482V7.39533H18.641V2.50124H16.0878L16.0301 4.13792C15.956 6.35743 15.6018 7.4592 14.4652 7.4592C14.3005 7.4592 14.144 7.44323 13.9463 7.39533L14.0039 6.68476C14.1028 6.70872 14.1769 6.7167 14.2675 6.7167C14.9841 6.7167 15.2312 5.89436 15.2971 4.16188L15.3877 1.80664Z" fill="#202335"/>
<path d="M25.5433 7.39533L24.909 5.99815H21.8451L21.2109 7.39533H20.3625L22.9735 1.80664H23.7888L26.4081 7.39533H25.5433ZM22.1333 5.35944H24.6207L23.3771 2.621L22.1333 5.35944Z" fill="#202335"/>
<path d="M29.7999 1.41507C28.8939 1.41507 28.3915 1.01588 28.3834 0.321289H28.968C28.9763 0.736448 29.2892 0.975963 29.7999 0.975963C30.2942 0.975963 30.6154 0.736448 30.6318 0.321289H31.2083C31.2 1.01588 30.6895 1.41507 29.7999 1.41507ZM27.3208 7.39498V1.80628H28.1361V6.11756L31.5461 1.80628H32.3038V7.39498H31.4966V3.09169L28.0785 7.39498H27.3208Z" fill="#202335"/>
<path d="M38.1536 1.80664H38.9774V7.39533H38.1536V4.90438H34.8426V7.39533H34.019V1.80664H34.8426V4.20978H38.1536V1.80664Z" fill="#202335"/>
<path d="M40.2646 5.53474V4.87207H42.4803V5.53474H40.2646Z" fill="#202335"/>
<path d="M50.1798 1.80664H50.987V7.39533H43.7637V1.80664H44.579V6.70073H46.9759V1.80664H47.7829V6.70073H50.1798V1.80664Z" fill="#202335"/>
<path d="M56.5772 7.39533L54.7076 4.93631H53.505V7.39533H52.6978V1.80664H53.505V4.23374H54.7239L56.536 1.80664H57.4171L55.3583 4.51317L57.5161 7.39533H56.5772Z" fill="#202335"/>
<path d="M60.8564 7.45862C59.0855 7.45862 57.7842 6.23709 57.7842 4.60041C57.7842 2.96371 59.0855 1.74219 60.8564 1.74219C62.6106 1.74219 63.912 2.95574 63.912 4.60041C63.912 6.24506 62.6106 7.45862 60.8564 7.45862ZM60.8564 6.74805C62.1331 6.74805 63.0884 5.8379 63.0884 4.60041C63.0884 3.36292 62.1331 2.45275 60.8564 2.45275C59.5633 2.45275 58.6078 3.36292 58.6078 4.60041C58.6078 5.8379 59.5633 6.74805 60.8564 6.74805Z" fill="#202335"/>
<path d="M65.6508 1.80664H69.7115V7.39533H68.9042V2.50124H66.351L66.2932 4.13792C66.2191 6.35743 65.865 7.4592 64.7284 7.4592C64.5636 7.4592 64.4072 7.44323 64.2095 7.39533L64.267 6.68476C64.366 6.70872 64.4402 6.7167 64.5307 6.7167C65.2472 6.7167 65.4943 5.89436 65.5603 4.16188L65.6508 1.80664Z" fill="#202335"/>
<path d="M75.8066 7.39533L75.1725 5.99815H72.1085L71.4742 7.39533H70.626L73.2368 1.80664H74.0523L76.6714 7.39533H75.8066ZM72.3968 5.35944H74.8842L73.6404 2.621L72.3968 5.35944Z" fill="#202335"/>
<path d="M1.23608 11.9189H6.20261V17.5076H5.39545V12.6135H2.05148V17.5076H1.23608V11.9189Z" fill="#202335"/>
<path d="M10.5126 17.5719C8.74179 17.5719 7.44043 16.3504 7.44043 14.7137C7.44043 13.077 8.74179 11.8555 10.5126 11.8555C12.267 11.8555 13.5683 13.069 13.5683 14.7137C13.5683 16.3583 12.267 17.5719 10.5126 17.5719ZM10.5126 16.8613C11.7892 16.8613 12.7446 15.9512 12.7446 14.7137C12.7446 13.4762 11.7892 12.566 10.5126 12.566C9.21949 12.566 8.26407 13.4762 8.26407 14.7137C8.26407 15.9512 9.21949 16.8613 10.5126 16.8613Z" fill="#202335"/>
<path d="M19.3017 16.813H20.1501V18.7292H19.3841V17.5076H14.64L14.6317 18.7292H13.8657L13.874 16.813H14.154C14.9447 16.7651 15.1341 15.4159 15.1918 13.7153L15.2494 11.9189H19.3017V16.813ZM15.9166 13.7872C15.8672 15.1524 15.7271 16.3819 15.233 16.813H18.4863V12.6135H15.9578L15.9166 13.7872Z" fill="#202335"/>
<path d="M24.9744 11.9189L24.9661 12.6135H22.001L22.0092 17.5076H21.1938V11.9189H24.9744Z" fill="#202335"/>
<path d="M27.7434 17.5719C25.9725 17.5719 24.6714 16.3504 24.6714 14.7137C24.6714 13.077 25.9725 11.8555 27.7434 11.8555C29.4978 11.8555 30.7992 13.069 30.7992 14.7137C30.7992 16.3583 29.4978 17.5719 27.7434 17.5719ZM27.7434 16.8613C29.0201 16.8613 29.9756 15.9512 29.9756 14.7137C29.9756 13.4762 29.0201 12.566 27.7434 12.566C26.4503 12.566 25.495 13.4762 25.495 14.7137C25.495 15.9512 26.4503 16.8613 27.7434 16.8613Z" fill="#202335"/>
<path d="M35.9296 11.9189V12.6135H33.9529V17.5076H33.1456V12.6135H31.1772V11.9189H35.9296Z" fill="#202335"/>
<path d="M39.3622 17.5719C37.5914 17.5719 36.29 16.3504 36.29 14.7137C36.29 13.077 37.5914 11.8555 39.3622 11.8555C41.1165 11.8555 42.4179 13.069 42.4179 14.7137C42.4179 16.3583 41.1165 17.5719 39.3622 17.5719ZM39.3622 16.8613C40.6387 16.8613 41.5943 15.9512 41.5943 14.7137C41.5943 13.4762 40.6387 12.566 39.3622 12.566C38.0692 12.566 37.1136 13.4762 37.1136 14.7137C37.1136 15.9512 38.0692 16.8613 39.3622 16.8613Z" fill="#202335"/>
<path d="M47.2582 14.6095C48.0325 14.7931 48.4442 15.2562 48.4442 15.9827C48.4442 16.9408 47.7194 17.5076 46.3029 17.5076H43.6672V11.9189H46.1463C47.3982 11.9189 48.1559 12.4219 48.1559 13.356C48.1559 13.9708 47.8184 14.4019 47.2582 14.6095ZM44.4826 12.5497V14.378H46.0887C46.8794 14.378 47.324 14.0666 47.324 13.4678C47.324 12.869 46.8794 12.5497 46.0887 12.5497H44.4826ZM46.2863 16.8769C47.1511 16.8769 47.6123 16.5735 47.6123 15.9189C47.6123 15.2722 47.1511 14.9847 46.2863 14.9847H44.4826V16.8769H46.2863Z" fill="#202335"/>
<path d="M53.6172 17.5076L51.7476 15.0486H50.545V17.5076H49.7378V11.9189H50.545V14.346H51.764L53.576 11.9189H54.4574L52.3983 14.6255L54.5562 17.5076H53.6172Z" fill="#202335"/>
<path d="M55.3181 17.5076V11.9189H56.1334V16.2302L59.5434 11.9189H60.3011V17.5076H59.4939V13.2044L56.0759 17.5076H55.3181Z" fill="#202335"/>
<path d="M68.025 17.5076L66.1554 15.0486H64.9528V17.5076H64.1458V11.9189H64.9528V14.346H66.1719L67.9838 11.9189H68.8652L66.806 14.6255L68.9639 17.5076H68.025Z" fill="#202335"/>
<path d="M72.8721 16.813H76.2326V17.5076H72.0483V11.9189H76.1173V12.6135H72.8721V14.3301H75.7631V15.0087H72.8721V16.813Z" fill="#202335"/>
<path d="M81.224 11.9189L81.2157 12.6135H78.2506L78.2589 17.5076H77.4434V11.9189H81.224Z" fill="#202335"/>
<path d="M83.7125 11.8555C85.3762 11.8555 86.6115 13.061 86.6115 14.7137C86.6115 16.3663 85.3762 17.5719 83.7125 17.5719C82.7818 17.5719 81.9828 17.2765 81.4639 16.6937L81.9828 16.1907C82.4357 16.6538 83.0123 16.8534 83.6712 16.8534C84.7914 16.8534 85.6396 16.0869 85.7633 14.9931H82.9711V14.3384H85.755C85.5904 13.3005 84.7585 12.574 83.6712 12.574C83.0123 12.574 82.4357 12.7816 81.9828 13.2367L81.4639 12.7337C81.9828 12.1589 82.7818 11.8555 83.7125 11.8555Z" fill="#202335"/>
<path d="M89.9934 17.5076V11.9189H90.8087V16.2302L94.2187 11.9189H94.9764V17.5076H94.1692V13.2044L90.7512 17.5076H89.9934Z" fill="#202335"/>
<path d="M101.415 17.5719C99.6446 17.5719 98.3433 16.3504 98.3433 14.7137C98.3433 13.077 99.6446 11.8555 101.415 11.8555C103.17 11.8555 104.471 13.069 104.471 14.7137C104.471 16.3583 103.17 17.5719 101.415 17.5719ZM101.415 16.8613C102.692 16.8613 103.647 15.9512 103.647 14.7137C103.647 13.4762 102.692 12.566 101.415 12.566C100.122 12.566 99.1671 13.4762 99.1671 14.7137C99.1671 15.9512 100.122 16.8613 101.415 16.8613Z" fill="#202335"/>
<path d="M109.501 11.9189L109.493 12.6135H106.527L106.536 17.5076H105.72V11.9189H109.501Z" fill="#202335"/>
<path d="M111.989 11.8555C113.653 11.8555 114.888 13.061 114.888 14.7137C114.888 16.3663 113.653 17.5719 111.989 17.5719C111.058 17.5719 110.259 17.2765 109.741 16.6937L110.259 16.1907C110.713 16.6538 111.289 16.8534 111.948 16.8534C113.068 16.8534 113.917 16.0869 114.04 14.9931H111.248V14.3384H114.032C113.867 13.3005 113.035 12.574 111.948 12.574C111.289 12.574 110.713 12.7816 110.259 13.2367L109.741 12.7337C110.259 12.1589 111.058 11.8555 111.989 11.8555Z" fill="#202335"/>
</g>
</g>
<defs>
<clipPath id="clip0_2502_1723">
<rect width="116" height="45.56" fill="white" transform="translate(0.743652 0.321289)"/>
</clipPath>
<clipPath id="clip1_2502_1723">
<rect width="115.971" height="45.56" fill="white" transform="translate(0.758301 0.321289)"/>
</clipPath>
</defs>
</svg>
