<svg width="23" height="23" viewBox="0 0 23 23" fill="none" xmlns="http://www.w3.org/2000/svg">
<g clip-path="url(#clip0_2502_1692)">
<g clip-path="url(#clip1_2502_1692)">
<path d="M18.6537 11.8403C18.4335 11.8557 18.1983 11.8016 17.9745 11.7668C17.5215 11.6994 17.074 11.5992 16.6355 11.4669C16.1593 11.3299 15.6494 11.3745 15.204 11.5919C14.7586 11.8093 14.4092 12.1843 14.2229 12.6446L14.0343 13.1119C13.0211 12.636 12.0778 12.023 11.2307 11.2899C10.3891 10.5507 9.65252 9.69913 9.04169 8.7591L9.44252 8.44855C9.87115 8.19955 10.1928 7.80032 10.3454 7.32769C10.4981 6.85506 10.4711 6.34243 10.2695 5.88845C10.0806 5.47024 9.91941 5.03995 9.78712 4.60041C9.72162 4.38301 9.66542 4.15487 9.61923 3.92604C9.4482 3.22729 9.03405 2.61264 8.45136 2.19278C7.86866 1.77293 7.15573 1.57545 6.44093 1.63592L3.43746 1.84594C3.0057 1.87205 2.58467 1.99115 2.20301 2.19513C1.82135 2.39912 1.48803 2.68319 1.22574 3.02803C0.963453 3.37286 0.778351 3.77036 0.683038 4.19345C0.587726 4.61655 0.584441 5.05531 0.673405 5.47985C1.50091 9.64902 3.68971 13.4234 6.89408 16.2069C10.0985 18.9903 14.1357 20.6242 18.3682 20.8504L18.7487 20.8238C19.487 20.7733 20.1808 20.4518 20.6976 19.9206C20.9945 19.6144 21.2231 19.2484 21.3685 18.8469C21.5138 18.4454 21.5726 18.0176 21.5408 17.5915L21.3302 14.5793C21.2692 13.8827 20.9689 13.2288 20.4808 12.7294C19.9926 12.2299 19.347 11.9157 18.6537 11.8403ZM19.5756 17.8298C19.5853 17.9724 19.5648 18.1155 19.5151 18.2494C19.4655 18.3833 19.388 18.5051 19.2879 18.6067C19.1827 18.7114 19.057 18.7928 18.9187 18.846C18.7803 18.8991 18.6324 18.9227 18.4844 18.9151C14.7013 18.6951 11.0983 17.2184 8.24376 14.7177C5.38926 12.2171 3.4457 8.83494 2.71964 5.1047C2.69343 4.95873 2.69698 4.80897 2.73011 4.66445C2.76323 4.51993 2.82523 4.38365 2.91236 4.26386C2.99869 4.1502 3.10817 4.05629 3.23352 3.98837C3.35887 3.92046 3.49722 3.88009 3.63935 3.86997L6.64283 3.65994C6.87528 3.63847 7.10796 3.69893 7.30082 3.83094C7.49368 3.96294 7.63464 4.15821 7.69945 4.38316C7.7587 4.65481 7.82771 4.92241 7.9065 5.18595C8.05917 5.70716 8.24945 6.21654 8.47586 6.71007L7.11988 7.46073C7.00389 7.52425 6.90157 7.61014 6.81879 7.71344C6.73601 7.81675 6.67439 7.93545 6.63749 8.06271C6.60059 8.18999 6.58911 8.32332 6.60374 8.45507C6.61835 8.58682 6.65878 8.71439 6.72269 8.83045C8.38001 11.8251 11.0349 14.1397 14.2223 15.369C14.4731 15.4523 14.7464 15.4331 14.9832 15.3157C15.1049 15.2622 15.2147 15.185 15.3064 15.0884C15.3981 14.992 15.4699 14.8782 15.5173 14.7537L16.0397 13.3045C16.5703 13.454 17.1093 13.5713 17.6538 13.6558C17.9251 13.6974 18.1988 13.7288 18.4754 13.7497C18.7064 13.7828 18.9188 13.8956 19.0761 14.0688C19.2333 14.242 19.3253 14.4647 19.3365 14.6985L19.5756 17.8298Z" fill="#202335"/>
</g>
</g>
<defs>
<clipPath id="clip0_2502_1692">
<rect width="21" height="20" fill="white" transform="translate(0.0737305 2.08105) rotate(-4)"/>
</clipPath>
<clipPath id="clip1_2502_1692">
<rect width="21" height="20" fill="white" transform="translate(0.0737305 2.08105) rotate(-4)"/>
</clipPath>
</defs>
</svg>
